<?xml version="1.0" standalone="no"?><!DOCTYPE svg PUBLIC "-//W3C//DTD SVG 1.1//EN" "http://www.w3.org/Graphics/SVG/1.1/DTD/svg11.dtd"><svg t="1710818903316" class="icon" viewBox="0 0 1024 1024" version="1.1" xmlns="http://www.w3.org/2000/svg" p-id="9613" xmlns:xlink="http://www.w3.org/1999/xlink" width="64" height="64"><path d="M512 65.408c-327.008 0-448 285.216-448 445.088s116.288 448 438.496 448c0 0 80.096 1.408 80.096-70.592s-36-48.992-36-100.8c0-51.904 36-74.912 53.312-74.912s131.104 8.608 194.496-15.904C857.696 671.904 960 594.08 960 461.6c0-116.704-120.992-396.192-448-396.192zM238.912 512a77.76 77.76 0 1 1-0.032-155.616A77.76 77.76 0 0 1 238.912 512z m146.688-192.512a77.76 77.76 0 1 1-0.032-155.616 77.76 77.76 0 0 1 0.032 155.616z m249.504 0a77.824 77.824 0 1 1 0.064-155.648 77.824 77.824 0 0 1-0.064 155.648zM783.2 512a77.824 77.824 0 1 1 0.064-155.648A77.824 77.824 0 0 1 783.2 512z" p-id="9614"></path></svg>