<?xml version="1.0" standalone="no"?><!DOCTYPE svg PUBLIC "-//W3C//DTD SVG 1.1//EN" "http://www.w3.org/Graphics/SVG/1.1/DTD/svg11.dtd"><svg t="1710147890670" class="icon" viewBox="0 0 1024 1024" version="1.1" xmlns="http://www.w3.org/2000/svg" p-id="22998" xmlns:xlink="http://www.w3.org/1999/xlink" width="64" height="64"><path d="M568 160c35.2 0 64 28.8 64 64v112c0 35.2-28.8 64-64 64h-25.6V448h140.8c51.2 0 92.8 41.6 96 89.6v83.2h28.8c35.2 0 64 28.8 64 64V800c0 35.2-28.8 64-64 64h-112c-35.2 0-64-28.8-64-64v-112c0-35.2 28.8-64 64-64h19.2v-83.2c0-16-16-28.8-32-28.8h-345.6c-16 0-32 16-28.8 35.2v76.8h22.4c35.2 0 64 28.8 64 64V800c0 35.2-28.8 64-64 64h-115.2c-35.2 0-64-28.8-64-64v-112c0-35.2 28.8-64 64-64h28.8v-73.6c-3.2-54.4 35.2-96 86.4-102.4H478.4v-48h-22.4c-35.2 0-64-28.8-64-64V224c0-35.2 28.8-64 64-64h112z" p-id="22999"></path></svg>