<?xml version="1.0" standalone="no"?><!DOCTYPE svg PUBLIC "-//W3C//DTD SVG 1.1//EN" "http://www.w3.org/Graphics/SVG/1.1/DTD/svg11.dtd"><svg t="1710398416394" class="icon" viewBox="0 0 1024 1024" version="1.1" xmlns="http://www.w3.org/2000/svg" p-id="28209" xmlns:xlink="http://www.w3.org/1999/xlink" width="64" height="64"><path d="M972.8 1024H51.2A51.2 51.2 0 0 1 0 972.8V51.2A51.2 51.2 0 0 1 51.2 0h921.6a51.2 51.2 0 0 1 51.2 51.2v921.6a51.2 51.2 0 0 1-51.2 51.2zM102.4 921.6h819.2V102.4H102.4z" p-id="28210"></path><path d="M204.8 204.8h256v256h-256z m358.4 0h256v256h-256zM204.8 563.2h256v256h-256z m358.4 0h256v256h-256z" p-id="28211"></path></svg>