<?xml version="1.0" standalone="no"?><!DOCTYPE svg PUBLIC "-//W3C//DTD SVG 1.1//EN" "http://www.w3.org/Graphics/SVG/1.1/DTD/svg11.dtd"><svg t="1711067519380" class="icon" viewBox="0 0 1024 1024" version="1.1" xmlns="http://www.w3.org/2000/svg" p-id="5525" xmlns:xlink="http://www.w3.org/1999/xlink" width="64" height="64"><path d="M628.288 568.832c14.72-13.76 12.672-39.808-2.176-52.864L244.544 135.232c-12.032-11.968-31.36-11.968-43.392 0-11.968 11.968-11.968 31.296 0 43.264l365.376 364.544L201.216 907.52c-11.968 12.032-11.968 31.232 0 43.264 12.032 11.904 31.36 11.904 43.392 0l381.44-380.608M800 128C782.336 128 768 142.272 768 160l0 768c0 17.6 14.336 32 32 32s32-14.4 32-32l0-768C832 142.272 817.664 128 800 128z" p-id="5526"></path></svg>