<?xml version="1.0" standalone="no"?><!DOCTYPE svg PUBLIC "-//W3C//DTD SVG 1.1//EN" "http://www.w3.org/Graphics/SVG/1.1/DTD/svg11.dtd"><svg t="1710398511793" class="icon" viewBox="0 0 1024 1024" version="1.1" xmlns="http://www.w3.org/2000/svg" p-id="33473" xmlns:xlink="http://www.w3.org/1999/xlink" width="64" height="64"><path d="M460.2 159.6H175.4c-8.8 0-16 7.2-16 16v397.2c0 8.8 7.2 16 16 16h284.8c8.8 0 16-7.2 16-16V175.6c0-8.8-7.2-16-16-16zM847.9 159.6H563c-8.8 0-16 7.2-16 16v172.7c0 8.8 7.2 16 16 16h284.8c8.8 0 16-7.2 16-16V175.6c0.1-8.8-7.1-16-15.9-16zM460.2 659.3H175.4c-8.8 0-16 7.2-16 16V848c0 8.8 7.2 16 16 16h284.8c8.8 0 16-7.2 16-16V675.3c0-8.8-7.2-16-16-16zM847.9 434.8H563c-8.8 0-16 7.2-16 16v397.3c0 8.8 7.2 16 16 16h284.8c8.8 0 16-7.2 16-16V450.8c0.1-8.8-7.1-16-15.9-16z" p-id="33474"></path></svg>