<?xml version="1.0" standalone="no"?><!DOCTYPE svg PUBLIC "-//W3C//DTD SVG 1.1//EN" "http://www.w3.org/Graphics/SVG/1.1/DTD/svg11.dtd"><svg t="1710312276468" class="icon" viewBox="0 0 1024 1024" version="1.1" xmlns="http://www.w3.org/2000/svg" p-id="11552" xmlns:xlink="http://www.w3.org/1999/xlink" width="64" height="64"><path d="M484.130013 556.295899L27.59582 321.245044a42.54569 42.54569 0 0 1 0-78.845201L479.061393 7.348987a62.717774 62.717774 0 0 1 58.724316 0l459.606084 235.050856a42.54569 42.54569 0 0 1 0 78.845201l-452.489537 235.050855a63.94653 63.94653 0 0 1-60.772243 0z m510.70187-83.811424a43.057671 43.057671 0 0 1 0 79.357183l-452.489536 235.050855a66.557637 66.557637 0 0 1-59.236297 0L26.571857 551.688063a43.057671 43.057671 0 0 1 0-79.357183l35.224349-17.919364 422.333807 217.131492a66.916024 66.916024 0 0 0 59.236297 0l417.213989-216.61951 34.200386 17.407382z m0 230.391821a42.54569 42.54569 0 0 1 0 78.845201l-452.489536 235.050856a63.690539 63.690539 0 0 1-59.236297 0L26.571857 781.619101a42.54569 42.54569 0 0 1 0-78.845201l35.224349-18.431346 422.333807 217.643473a66.916024 66.916024 0 0 0 59.236297 0l417.213989-217.131491 34.200386 17.919364z" p-id="11553"></path></svg>