<?xml version="1.0" standalone="no"?><!DOCTYPE svg PUBLIC "-//W3C//DTD SVG 1.1//EN" "http://www.w3.org/Graphics/SVG/1.1/DTD/svg11.dtd"><svg t="1710125126853" class="icon" viewBox="0 0 1024 1024" version="1.1" xmlns="http://www.w3.org/2000/svg" p-id="14782" xmlns:xlink="http://www.w3.org/1999/xlink" width="64" height="64"><path d="M168 64c37.467-4.207 78.605 19.422 106 36 87.758 53.106 182.027 107.085 268 156 89.48 50.91 181.842 102.966 270 154 34.297 19.854 63.975 32.566 85 56 16.645 18.55 28.605 48.377 15 77-14.216 29.906-47.443 49.74-79 69-182.543 111.412-372.041 214.248-562 320-44.618 24.839-129.723 52.367-156-7-9.577-21.637-9-56.001-9-92V232c0-32.949-2.755-67.798 2-98 6.488-41.206 26.434-66.231 60-70z m191 392v112c0 20.894-1.533 42.603 9 47 16.943 7.074 39.16-11.912 50-18 31.15-17.493 58.362-32.5 90-51 12.328-7.209 38.235-16.504 38-33-0.194-13.631-25.838-25.731-37-32-35.717-20.058-55.352-31.1-88-50-11.913-6.896-34.245-25.21-50-21-15.413 4.119-12 26.444-12 46z" p-id="14783"></path></svg>