<?xml version="1.0" standalone="no"?><!DOCTYPE svg PUBLIC "-//W3C//DTD SVG 1.1//EN" "http://www.w3.org/Graphics/SVG/1.1/DTD/svg11.dtd"><svg t="1710124708092" class="icon" viewBox="0 0 1024 1024" version="1.1" xmlns="http://www.w3.org/2000/svg" p-id="12910" xmlns:xlink="http://www.w3.org/1999/xlink" width="64" height="64"><path d="M893.297778 293.290667L730.737778 130.702222a64 64 0 0 0-45.312-18.688H143.985778c-17.692444 0-32 14.279111-32 31.971556v736c0 17.720889 14.307556 32 32.028444 32h736c17.692444 0 32-14.279111 32-31.971556V338.488889c0-16.981333-6.712889-33.194667-18.716444-45.198222zM384 176.014222h256v111.985778h-256V175.985778zM512 729.969778a144.042667 144.042667 0 0 1-144.014222-143.985778A144.042667 144.042667 0 0 1 512 441.998222a144.042667 144.042667 0 0 1 144.014222 144.014222A144.042667 144.042667 0 0 1 512 729.998222z m0-224a79.985778 79.985778 0 1 0 0 160 79.985778 79.985778 0 1 0 0-160z" p-id="12911"></path></svg>